<?xml version="1.0" encoding="utf-8" standalone="no"?>
<!DOCTYPE svg PUBLIC "-//W3C//DTD SVG 1.1//EN"
  "http://www.w3.org/Graphics/SVG/1.1/DTD/svg11.dtd">
<svg xmlns:xlink="http://www.w3.org/1999/xlink" width="510.23622pt" height="153.070866pt" viewBox="0 0 510.23622 153.070866" xmlns="http://www.w3.org/2000/svg" version="1.1">
 <metadata>
  <rdf:RDF xmlns:dc="http://purl.org/dc/elements/1.1/" xmlns:cc="http://creativecommons.org/ns#" xmlns:rdf="http://www.w3.org/1999/02/22-rdf-syntax-ns#">
   <cc:Work>
    <dc:type rdf:resource="http://purl.org/dc/dcmitype/StillImage"/>
    <dc:date>2026-10-03T13:13:59.979150</dc:date>
    <dc:format>image/svg+xml</dc:format>
    <dc:creator>
     <cc:Agent>
      <dc:title>Matplotlib v3.10.8, https://matplotlib.org/</dc:title>
     </cc:Agent>
    </dc:creator>
   </cc:Work>
  </rdf:RDF>
 </metadata>
 <defs>
  <style type="text/css">*{stroke-linejoin: round; stroke-linecap: butt}</style>
 </defs>
 <g id="figure_1">
  <g id="patch_1">
   <path d="M 0 153.070866 
L 510.23622 153.070866 
L 510.23622 0 
L 0 0 
z
" style="fill: #ffffff"/>
  </g>
  <g id="axes_1">
   <g id="patch_2">
    <path d="M 61.228346 116.333858 
L 335.327244 116.333858 
L 335.327244 41.329134 
L 61.228346 41.329134 
z
" style="fill: #ffffff"/>
   </g>
   <g id="matplotlib.axis_1">
    <g id="xtick_1">
     <g id="line2d_1">
      <path d="M 61.228346 116.333858 
L 61.228346 41.329134 
" clip-path="url(#p27f942c5cc)" style="fill: none; stroke: #e0e4e7; stroke-width: 0.6; stroke-linecap: square"/>
     </g>
     <g id="line2d_2"/>
     <g id="text_1">
      <text style="font-size: 7.5px; font-family: 'DejaVu Sans'; text-anchor: middle" x="61.228346" y="127.032686" transform="rotate(-0 61.228346 127.032686)">0</text>
     </g>
    </g>
    <g id="xtick_2">
     <g id="line2d_3">
      <path d="M 170.867906 116.333858 
L 170.867906 41.329134 
" clip-path="url(#p27f942c5cc)" style="fill: none; stroke: #e0e4e7; stroke-width: 0.6; stroke-linecap: square"/>
     </g>
     <g id="line2d_4"/>
     <g id="text_2">
      <text style="font-size: 7.5px; font-family: 'DejaVu Sans'; text-anchor: middle" x="170.867906" y="127.032686" transform="rotate(-0 170.867906 127.032686)">100</text>
     </g>
    </g>
    <g id="xtick_3">
     <g id="line2d_5">
      <path d="M 280.507465 116.333858 
L 280.507465 41.329134 
" clip-path="url(#p27f942c5cc)" style="fill: none; stroke: #e0e4e7; stroke-width: 0.6; stroke-linecap: square"/>
     </g>
     <g id="line2d_6"/>
     <g id="text_3">
      <text style="font-size: 7.5px; font-family: 'DejaVu Sans'; text-anchor: middle" x="280.507465" y="127.032686" transform="rotate(-0 280.507465 127.032686)">200</text>
     </g>
    </g>
    <g id="text_4">
     <text style="font-size: 8px; font-family: 'DejaVu Sans'; text-anchor: middle" x="198.277795" y="138.671202" transform="rotate(-0 198.277795 138.671202)">Time (ms)</text>
    </g>
   </g>
   <g id="matplotlib.axis_2">
    <g id="ytick_1">
     <g id="line2d_7"/>
     <g id="text_5">
      <text style="font-size: 7.5px; font-family: 'DejaVu Sans'; text-anchor: end" x="56.228346" y="56.679335" transform="rotate(-0 56.228346 56.679335)">Small</text>
     </g>
    </g>
    <g id="ytick_2">
     <g id="line2d_8"/>
     <g id="text_6">
      <text style="font-size: 7.5px; font-family: 'DejaVu Sans'; text-anchor: end" x="56.228346" y="81.68091" transform="rotate(-0 56.228346 81.68091)">Medium</text>
     </g>
    </g>
    <g id="ytick_3">
     <g id="line2d_9"/>
     <g id="text_7">
      <text style="font-size: 7.5px; font-family: 'DejaVu Sans'; text-anchor: end" x="56.228346" y="106.682485" transform="rotate(-0 56.228346 106.682485)">Large</text>
     </g>
    </g>
   </g>
   <g id="PathCollection_1">
    <defs>
     <path id="mabfe7a5cf2" d="M -2.44949 2.44949 
L 2.44949 2.44949 
L 2.44949 -2.44949 
L -2.44949 -2.44949 
z
" style="stroke: #59636e"/>
    </defs>
    <g clip-path="url(#p27f942c5cc)">
     <use xlink:href="#mabfe7a5cf2" x="170.867906" y="57.080126" style="fill: #59636e; stroke: #59636e"/>
    </g>
   </g>
   <g id="text_8">
    <text style="font-size: 7.5px; font-family: 'DejaVu Sans'; text-anchor: start" x="175.867906" y="59.149657" transform="rotate(-0 175.867906 59.149657)">100</text>
   </g>
   <g id="PathCollection_2">
    <defs>
     <path id="m03f12e8fab" d="M 0 2.44949 
C 0.649612 2.44949 1.272706 2.191396 1.732051 1.732051 
C 2.191396 1.272706 2.44949 0.649612 2.44949 0 
C 2.44949 -0.649612 2.191396 -1.272706 1.732051 -1.732051 
C 1.272706 -2.191396 0.649612 -2.44949 0 -2.44949 
C -0.649612 -2.44949 -1.272706 -2.191396 -1.732051 -1.732051 
C -2.191396 -1.272706 -2.44949 -0.649612 -2.44949 0 
C -2.44949 0.649612 -2.191396 1.272706 -1.732051 1.732051 
C -1.272706 2.191396 -0.649612 2.44949 0 2.44949 
z
" style="stroke: #007a94"/>
    </defs>
    <g clip-path="url(#p27f942c5cc)">
     <use xlink:href="#m03f12e8fab" x="148.939994" y="50.579717" style="fill: #007a94; stroke: #007a94"/>
    </g>
   </g>
   <g id="text_9">
    <text style="font-size: 7.5px; font-family: 'DejaVu Sans'; text-anchor: start" x="153.939994" y="52.649248" transform="rotate(-0 153.939994 52.649248)">80</text>
   </g>
   <g id="PathCollection_3">
    <g clip-path="url(#p27f942c5cc)">
     <use xlink:href="#mabfe7a5cf2" x="192.795817" y="82.081701" style="fill: #59636e; stroke: #59636e"/>
    </g>
   </g>
   <g id="text_10">
    <text style="font-size: 7.5px; font-family: 'DejaVu Sans'; text-anchor: start" x="197.795817" y="84.151232" transform="rotate(-0 197.795817 84.151232)">120</text>
   </g>
   <g id="PathCollection_4">
    <g clip-path="url(#p27f942c5cc)">
     <use xlink:href="#m03f12e8fab" x="170.867906" y="75.581291" style="fill: #007a94; stroke: #007a94"/>
    </g>
   </g>
   <g id="text_11">
    <text style="font-size: 7.5px; font-family: 'DejaVu Sans'; text-anchor: start" x="175.867906" y="77.650823" transform="rotate(-0 175.867906 77.650823)">100</text>
   </g>
   <g id="PathCollection_5">
    <g clip-path="url(#p27f942c5cc)">
     <use xlink:href="#mabfe7a5cf2" x="280.507465" y="107.083276" style="fill: #59636e; stroke: #59636e"/>
    </g>
   </g>
   <g id="text_12">
    <text style="font-size: 7.5px; font-family: 'DejaVu Sans'; text-anchor: start" x="285.507465" y="109.152807" transform="rotate(-0 285.507465 109.152807)">200</text>
   </g>
   <g id="PathCollection_6">
    <g clip-path="url(#p27f942c5cc)">
     <use xlink:href="#m03f12e8fab" x="302.435376" y="100.582866" style="fill: #007a94; stroke: #007a94"/>
    </g>
   </g>
   <g id="text_13">
    <text style="font-size: 7.5px; font-family: 'DejaVu Sans'; text-anchor: start" x="307.435376" y="102.652397" transform="rotate(-0 307.435376 102.652397)">220</text>
   </g>
   <g id="text_14">
    <text style="font-size: 8.5px; font-family: 'DejaVu Sans'; text-anchor: start" x="61.228346" y="33.329134" transform="rotate(-0 61.228346 33.329134)">End-to-end</text>
   </g>
  </g>
  <g id="axes_2">
   <g id="patch_3">
    <path d="M 395.790236 116.333858 
L 464.314961 116.333858 
L 464.314961 41.329134 
L 395.790236 41.329134 
z
" style="fill: #ffffff"/>
   </g>
   <g id="matplotlib.axis_3">
    <g id="xtick_4">
     <g id="line2d_10">
      <path d="M 395.790236 116.333858 
L 395.790236 41.329134 
" clip-path="url(#pe29fb4c7b9)" style="fill: none; stroke: #e0e4e7; stroke-width: 0.6; stroke-linecap: square"/>
     </g>
     <g id="line2d_11"/>
     <g id="text_15">
      <text style="font-size: 7.5px; font-family: 'DejaVu Sans'; text-anchor: middle" x="395.790236" y="127.032686" transform="rotate(-0 395.790236 127.032686)">0</text>
     </g>
    </g>
    <g id="xtick_5">
     <g id="line2d_12">
      <path d="M 418.631811 116.333858 
L 418.631811 41.329134 
" clip-path="url(#pe29fb4c7b9)" style="fill: none; stroke: #e0e4e7; stroke-width: 0.6; stroke-linecap: square"/>
     </g>
     <g id="line2d_13"/>
     <g id="text_16">
      <text style="font-size: 7.5px; font-family: 'DejaVu Sans'; text-anchor: middle" x="418.631811" y="127.032686" transform="rotate(-0 418.631811 127.032686)">10</text>
     </g>
    </g>
    <g id="xtick_6">
     <g id="line2d_14">
      <path d="M 441.473386 116.333858 
L 441.473386 41.329134 
" clip-path="url(#pe29fb4c7b9)" style="fill: none; stroke: #e0e4e7; stroke-width: 0.6; stroke-linecap: square"/>
     </g>
     <g id="line2d_15"/>
     <g id="text_17">
      <text style="font-size: 7.5px; font-family: 'DejaVu Sans'; text-anchor: middle" x="441.473386" y="127.032686" transform="rotate(-0 441.473386 127.032686)">20</text>
     </g>
    </g>
    <g id="xtick_7">
     <g id="line2d_16">
      <path d="M 464.314961 116.333858 
L 464.314961 41.329134 
" clip-path="url(#pe29fb4c7b9)" style="fill: none; stroke: #e0e4e7; stroke-width: 0.6; stroke-linecap: square"/>
     </g>
     <g id="line2d_17"/>
     <g id="text_18">
      <text style="font-size: 7.5px; font-family: 'DejaVu Sans'; text-anchor: middle" x="464.314961" y="127.032686" transform="rotate(-0 464.314961 127.032686)">30</text>
     </g>
    </g>
    <g id="text_19">
     <text style="font-size: 8px; font-family: 'DejaVu Sans'; text-anchor: middle" x="430.052598" y="138.671202" transform="rotate(-0 430.052598 138.671202)">Time (ms)</text>
    </g>
   </g>
   <g id="matplotlib.axis_4">
    <g id="ytick_4">
     <g id="line2d_18"/>
     <g id="text_20">
      <text style="font-size: 7.5px; font-family: 'DejaVu Sans'; text-anchor: end" x="390.790236" y="81.68091" transform="rotate(-0 390.790236 81.68091)">Kernel</text>
     </g>
    </g>
   </g>
   <g id="PathCollection_7">
    <g clip-path="url(#pe29fb4c7b9)">
     <use xlink:href="#mabfe7a5cf2" x="441.473386" y="88.58211" style="fill: #59636e; stroke: #59636e"/>
    </g>
   </g>
   <g id="text_21">
    <text style="font-size: 7.5px; font-family: 'DejaVu Sans'; text-anchor: start" x="446.473386" y="90.651641" transform="rotate(-0 446.473386 90.651641)">20</text>
   </g>
   <g id="PathCollection_8">
    <g clip-path="url(#pe29fb4c7b9)">
     <use xlink:href="#m03f12e8fab" x="418.631811" y="69.080882" style="fill: #007a94; stroke: #007a94"/>
    </g>
   </g>
   <g id="text_22">
    <text style="font-size: 7.5px; font-family: 'DejaVu Sans'; text-anchor: start" x="423.631811" y="71.150413" transform="rotate(-0 423.631811 71.150413)">10</text>
   </g>
   <g id="text_23">
    <text style="font-size: 8.5px; font-family: 'DejaVu Sans'; text-anchor: start" x="395.790236" y="33.329134" transform="rotate(-0 395.790236 33.329134)">Kernel only</text>
   </g>
  </g>
  <g id="text_24">
   <text style="font-weight: 700; font-size: 10px; font-family: 'DejaVu Sans'; text-anchor: start" x="20.409449" y="12.245669" transform="rotate(-0 20.409449 12.245669)">B  Provided timing values</text>
  </g>
  <g id="legend_1">
   <g id="line2d_19">
    <defs>
     <path id="mf60dcbc36f" d="M -2 2 
L 2 2 
L 2 -2 
L -2 -2 
z
" style="stroke: #59636e; stroke-linejoin: miter"/>
    </defs>
    <g>
     <use xlink:href="#mf60dcbc36f" x="375.41747" y="10.47875" style="fill: #59636e; stroke: #59636e; stroke-linejoin: miter"/>
    </g>
   </g>
   <g id="text_25">
    <text style="font-size: 8px; font-family: 'DejaVu Sans'; text-anchor: start" x="389.81747" y="13.27875" transform="rotate(-0 389.81747 13.27875)">Baseline</text>
   </g>
   <g id="line2d_20">
    <defs>
     <path id="mb2e30d6e49" d="M 0 2 
C 0.530406 2 1.03916 1.789267 1.414214 1.414214 
C 1.789267 1.03916 2 0.530406 2 0 
C 2 -0.530406 1.789267 -1.03916 1.414214 -1.414214 
C 1.03916 -1.789267 0.530406 -2 0 -2 
C -0.530406 -2 -1.03916 -1.789267 -1.414214 -1.414214 
C -1.789267 -1.03916 -2 -0.530406 -2 0 
C -2 0.530406 -1.789267 1.03916 -1.414214 1.414214 
C -1.03916 1.789267 -0.530406 2 0 2 
z
" style="stroke: #007a94"/>
    </defs>
    <g>
     <use xlink:href="#mb2e30d6e49" x="447.73622" y="10.47875" style="fill: #007a94; stroke: #007a94"/>
    </g>
   </g>
   <g id="text_26">
    <text style="font-size: 8px; font-family: 'DejaVu Sans'; text-anchor: start" x="462.13622" y="13.27875" transform="rotate(-0 462.13622 13.27875)">Candidate</text>
   </g>
  </g>
 </g>
 <defs>
  <clipPath id="p27f942c5cc">
   <rect x="61.228346" y="41.329134" width="274.098898" height="75.004724"/>
  </clipPath>
  <clipPath id="pe29fb4c7b9">
   <rect x="395.790236" y="41.329134" width="68.524724" height="75.004724"/>
  </clipPath>
 </defs>
</svg>
